<?xml version="1.0" encoding="UTF-8"?>
<svg width="348px" height="348px" viewBox="0 0 348 348" version="1.1" xmlns="http://www.w3.org/2000/svg" xmlns:xlink="http://www.w3.org/1999/xlink">
    <title>gps</title>
    <g id="Page-1" stroke="none" stroke-width="1" fill="none" fill-rule="evenodd">
        <g id="gps" fill="#E7E7EB" fill-rule="nonzero">
            <circle id="Shape" cx="174.391033" cy="173.608967" r="56"></circle>
            <path d="M333.007299,159.004418 L313.957501,157.934206 C306.676804,92.4118864 254.571857,40.278808 189.084893,32.9941799 L189.084893,15.0682596 C189.084893,6.38334659 182.040071,5.68434189e-14 173.359845,5.68434189e-14 C164.679618,5.68434189e-14 157.634796,6.38334659 157.634796,15.0682596 L157.634796,32.9941799 C92.1478329,40.278808 40.0428854,92.4118864 32.762188,157.934206 L16.7078638,157.827054 C8.02763716,157.827054 -2.84217094e-14,164.875679 -2.84217094e-14,173.560592 C-2.84217094e-14,182.245505 7.42913521,188.802457 16.1093619,188.802457 L32.762188,189.401282 C40.0428854,254.923601 92.1478329,307.05668 157.634796,314.341308 L157.634796,334.621987 C157.634796,343.3069 164.291792,348 172.972019,348 C181.652245,348 189.084893,343.3069 189.084893,334.621987 L189.084893,314.341308 C254.571857,307.05668 306.676804,254.923601 313.957501,189.401282 L333.007299,188.802457 C341.687525,188.802457 348,182.737178 348,174.052265 C348,165.367352 341.687525,159.004418 333.007299,159.004418 Z M173,284 C112.342857,284 63,234.657143 63,174 C63,113.342857 112.342857,64 173,64 C233.657143,64 283,113.342857 283,174 C283,234.657143 233.657143,284 173,284 Z" id="Shape"></path>
        </g>
    </g>
</svg>